<svg xmlns="http://www.w3.org/2000/svg" viewBox="0 0 1440 320"><path fill="#a2d9ff" fill-opacity="0.2" d="M0,288L8.3,277.3C16.6,267,33,245,50,245.3C66.2,245,83,267,99,256C115.9,245,132,203,149,160C165.5,117,182,75,199,74.7C215.2,75,232,117,248,149.3C264.8,181,281,203,298,181.3C314.5,160,331,96,348,74.7C364.1,53,381,75,397,80C413.8,85,430,75,447,106.7C463.4,139,480,213,497,208C513.1,203,530,117,546,117.3C562.8,117,579,203,596,240C612.4,277,629,267,646,245.3C662.1,224,679,192,695,154.7C711.7,117,728,75,745,53.3C761.4,32,778,32,794,32C811,32,828,32,844,37.3C860.7,43,877,53,894,74.7C910.3,96,927,128,943,138.7C960,149,977,139,993,138.7C1009.7,139,1026,149,1043,154.7C1059.3,160,1076,160,1092,138.7C1109,117,1126,75,1142,96C1158.6,117,1175,203,1192,208C1208.3,213,1225,139,1241,138.7C1257.9,139,1274,213,1291,256C1307.6,299,1324,309,1341,293.3C1357.2,277,1374,235,1390,192C1406.9,149,1423,107,1432,85.3L1440,64L1440,0L1431.7,0C1423.4,0,1407,0,1390,0C1373.8,0,1357,0,1341,0C1324.1,0,1308,0,1291,0C1274.5,0,1258,0,1241,0C1224.8,0,1208,0,1192,0C1175.2,0,1159,0,1142,0C1125.5,0,1109,0,1092,0C1075.9,0,1059,0,1043,0C1026.2,0,1010,0,993,0C976.6,0,960,0,943,0C926.9,0,910,0,894,0C877.2,0,861,0,844,0C827.6,0,811,0,794,0C777.9,0,761,0,745,0C728.3,0,712,0,695,0C678.6,0,662,0,646,0C629,0,612,0,596,0C579.3,0,563,0,546,0C529.7,0,513,0,497,0C480,0,463,0,447,0C430.3,0,414,0,397,0C380.7,0,364,0,348,0C331,0,314,0,298,0C281.4,0,265,0,248,0C231.7,0,215,0,199,0C182.1,0,166,0,149,0C132.4,0,116,0,99,0C82.8,0,66,0,50,0C33.1,0,17,0,8,0L0,0Z"></path></svg>