<svg xmlns="http://www.w3.org/2000/svg" viewBox="0 0 1440 320">
  <path fill="#ff722b" fill-opacity="1" d="M0,224L10.9,202.7C21.8,181,44,139,65,117.3C87.3,96,109,96,131,96C152.7,96,175,96,196,117.3C218.2,139,240,181,262,202.7C283.6,224,305,224,327,234.7C349.1,245,371,267,393,229.3C414.5,192,436,96,458,58.7C480,21,502,43,524,53.3C545.5,64,567,64,589,80C610.9,96,633,128,655,128C676.4,128,698,96,720,90.7C741.8,85,764,107,785,96C807.3,85,829,43,851,32C872.7,21,895,43,916,85.3C938.2,128,960,192,982,208C1003.6,224,1025,192,1047,160C1069.1,128,1091,96,1113,96C1134.5,96,1156,128,1178,165.3C1200,203,1222,245,1244,234.7C1265.5,224,1287,160,1309,149.3C1330.9,139,1353,181,1375,192C1396.4,203,1418,181,1429,170.7L1440,160L1440,320L1429.1,320C1418.2,320,1396,320,1375,320C1352.7,320,1331,320,1309,320C1287.3,320,1265,320,1244,320C1221.8,320,1200,320,1178,320C1156.4,320,1135,320,1113,320C1090.9,320,1069,320,1047,320C1025.5,320,1004,320,982,320C960,320,938,320,916,320C894.5,320,873,320,851,320C829.1,320,807,320,785,320C763.6,320,742,320,720,320C698.2,320,676,320,655,320C632.7,320,611,320,589,320C567.3,320,545,320,524,320C501.8,320,480,320,458,320C436.4,320,415,320,393,320C370.9,320,349,320,327,320C305.5,320,284,320,262,320C240,320,218,320,196,320C174.5,320,153,320,131,320C109.1,320,87,320,65,320C43.6,320,22,320,11,320L0,320Z"></path>
</svg>