<svg width="70" height="30" viewBox="0 0 70 30" fill="none" xmlns="http://www.w3.org/2000/svg">
<path fill-rule="evenodd" clip-rule="evenodd" d="M30 0H0V30H30V24.9881C28.1509 26.2573 25.9122 27 23.5 27C17.1487 27 12 21.8513 12 15.5C12 9.14873 17.1487 4 23.5 4C25.9122 4 28.1509 4.74268 30 6.01185V0Z" fill="#FB923C"/>
<path d="M21.75 20H19.0568V11.2727H21.8693C22.7159 11.2727 23.4403 11.4474 24.0426 11.7969C24.6449 12.1435 25.1065 12.642 25.4276 13.2926C25.7486 13.9403 25.9091 14.7159 25.9091 15.6193C25.9091 16.5284 25.7472 17.3111 25.4233 17.9673C25.0994 18.6207 24.6278 19.1236 24.0085 19.4759C23.3892 19.8253 22.6364 20 21.75 20ZM20.1136 19.0625H21.6818C22.4034 19.0625 23.0014 18.9233 23.4759 18.6449C23.9503 18.3665 24.304 17.9702 24.5369 17.456C24.7699 16.9418 24.8864 16.3295 24.8864 15.6193C24.8864 14.9148 24.7713 14.3082 24.5412 13.7997C24.3111 13.2884 23.9673 12.8963 23.5099 12.6236C23.0526 12.348 22.483 12.2102 21.8011 12.2102H20.1136V19.0625ZM31.6705 17.3239V13.4545H32.6761V20H31.6705V18.892H31.6023C31.4489 19.2244 31.2102 19.5071 30.8864 19.7401C30.5625 19.9702 30.1534 20.0852 29.6591 20.0852C29.25 20.0852 28.8864 19.9957 28.5682 19.8168C28.25 19.6349 28 19.3622 27.8182 18.9986C27.6364 18.6321 27.5455 18.1705 27.5455 17.6136V13.4545H28.5511V17.5455C28.5511 18.0227 28.6847 18.4034 28.9517 18.6875C29.2216 18.9716 29.5653 19.1136 29.983 19.1136C30.233 19.1136 30.4872 19.0497 30.7457 18.9219C31.0071 18.794 31.2259 18.598 31.402 18.3338C31.581 18.0696 31.6705 17.733 31.6705 17.3239ZM35.5238 16.0625V20H34.5181V13.4545H35.4897V14.4773H35.5749C35.7283 14.1449 35.9613 13.8778 36.2738 13.6761C36.5863 13.4716 36.9897 13.3693 37.484 13.3693C37.9272 13.3693 38.315 13.4602 38.6474 13.642C38.9798 13.821 39.2383 14.0938 39.4229 14.4602C39.6076 14.8239 39.6999 15.2841 39.6999 15.8409V20H38.6942V15.9091C38.6942 15.3949 38.5607 14.9943 38.2937 14.7074C38.0266 14.4176 37.6602 14.2727 37.1942 14.2727C36.8732 14.2727 36.5863 14.3423 36.3335 14.4815C36.0835 14.6207 35.886 14.8239 35.7411 15.0909C35.5962 15.358 35.5238 15.6818 35.5238 16.0625ZM44.1797 22.5909C43.6939 22.5909 43.2763 22.5284 42.9268 22.4034C42.5774 22.2812 42.2862 22.1193 42.0533 21.9176C41.8232 21.7188 41.6399 21.5057 41.5036 21.2784L42.3047 20.7159C42.3956 20.8352 42.5107 20.9716 42.6499 21.125C42.7891 21.2812 42.9794 21.4162 43.2209 21.5298C43.4652 21.6463 43.7848 21.7045 44.1797 21.7045C44.7081 21.7045 45.1442 21.5767 45.4879 21.321C45.8317 21.0653 46.0036 20.6648 46.0036 20.1193V18.7898H45.9183C45.8445 18.9091 45.7393 19.0568 45.603 19.233C45.4695 19.4062 45.2763 19.5611 45.0234 19.6974C44.7734 19.831 44.4354 19.8977 44.0092 19.8977C43.4808 19.8977 43.0064 19.7727 42.5859 19.5227C42.1683 19.2727 41.8374 18.9091 41.593 18.4318C41.3516 17.9545 41.2308 17.375 41.2308 16.6932C41.2308 16.0227 41.3487 15.4389 41.5845 14.9418C41.8203 14.4418 42.1484 14.0554 42.5689 13.7827C42.9893 13.5071 43.4751 13.3693 44.0263 13.3693C44.4524 13.3693 44.7905 13.4403 45.0405 13.5824C45.2933 13.7216 45.4865 13.8807 45.62 14.0597C45.7564 14.2358 45.8615 14.3807 45.9354 14.4943H46.0376V13.4545H47.0092V20.1875C47.0092 20.75 46.8814 21.2074 46.6257 21.5597C46.3729 21.9148 46.032 22.1747 45.603 22.3395C45.1768 22.5071 44.7024 22.5909 44.1797 22.5909ZM44.1456 18.9943C44.549 18.9943 44.8899 18.902 45.1683 18.7173C45.4467 18.5327 45.6584 18.267 45.8033 17.9205C45.9482 17.5739 46.0206 17.1591 46.0206 16.6761C46.0206 16.2045 45.9496 15.7884 45.8075 15.4276C45.6655 15.0668 45.4553 14.7841 45.1768 14.5795C44.8984 14.375 44.5547 14.2727 44.1456 14.2727C43.7195 14.2727 43.3643 14.3807 43.0803 14.5966C42.799 14.8125 42.5874 15.1023 42.4453 15.4659C42.3061 15.8295 42.2365 16.233 42.2365 16.6761C42.2365 17.1307 42.3075 17.5327 42.4496 17.8821C42.5945 18.2287 42.8075 18.5014 43.0888 18.7003C43.3729 18.8963 43.7251 18.9943 44.1456 18.9943ZM51.5945 20.1364C50.9638 20.1364 50.4197 19.9972 49.9624 19.7188C49.5078 19.4375 49.157 19.0455 48.9098 18.5426C48.6655 18.0369 48.5433 17.4489 48.5433 16.7784C48.5433 16.108 48.6655 15.517 48.9098 15.0057C49.157 14.4915 49.5007 14.0909 49.9411 13.804C50.3842 13.5142 50.9013 13.3693 51.4922 13.3693C51.8331 13.3693 52.1697 13.4261 52.5021 13.5398C52.8345 13.6534 53.1371 13.8381 53.4098 14.0938C53.6825 14.3466 53.8999 14.6818 54.0618 15.0994C54.2237 15.517 54.3047 16.0312 54.3047 16.642V17.0682H49.2592V16.1989H53.282C53.282 15.8295 53.2081 15.5 53.0604 15.2102C52.9155 14.9205 52.7081 14.6918 52.4382 14.5241C52.1712 14.3565 51.8558 14.2727 51.4922 14.2727C51.0916 14.2727 50.745 14.3722 50.4524 14.571C50.1626 14.767 49.9396 15.0227 49.7834 15.3381C49.6271 15.6534 49.549 15.9915 49.549 16.3523V16.9318C49.549 17.4261 49.6342 17.8452 49.8047 18.1889C49.978 18.5298 50.218 18.7898 50.5249 18.9688C50.8317 19.1449 51.1882 19.233 51.5945 19.233C51.8587 19.233 52.0973 19.196 52.3104 19.1222C52.5263 19.0455 52.7124 18.9318 52.8686 18.7812C53.0249 18.6278 53.1456 18.4375 53.2308 18.2102L54.2024 18.483C54.1001 18.8125 53.9283 19.1023 53.6868 19.3523C53.4453 19.5994 53.147 19.7926 52.7919 19.9318C52.4368 20.0682 52.0376 20.1364 51.5945 20.1364ZM58.4936 20.1364C57.9027 20.1364 57.3842 19.9957 56.9382 19.7145C56.495 19.4332 56.1484 19.0398 55.8984 18.5341C55.6513 18.0284 55.5277 17.4375 55.5277 16.7614C55.5277 16.0795 55.6513 15.4844 55.8984 14.9759C56.1484 14.4673 56.495 14.0724 56.9382 13.7912C57.3842 13.5099 57.9027 13.3693 58.4936 13.3693C59.0845 13.3693 59.6016 13.5099 60.0447 13.7912C60.4908 14.0724 60.8374 14.4673 61.0845 14.9759C61.3345 15.4844 61.4595 16.0795 61.4595 16.7614C61.4595 17.4375 61.3345 18.0284 61.0845 18.5341C60.8374 19.0398 60.4908 19.4332 60.0447 19.7145C59.6016 19.9957 59.0845 20.1364 58.4936 20.1364ZM58.4936 19.233C58.9425 19.233 59.3118 19.1179 59.6016 18.8878C59.8913 18.6577 60.1058 18.3551 60.245 17.9801C60.3842 17.6051 60.4538 17.1989 60.4538 16.7614C60.4538 16.3239 60.3842 15.9162 60.245 15.5384C60.1058 15.1605 59.8913 14.8551 59.6016 14.6222C59.3118 14.3892 58.9425 14.2727 58.4936 14.2727C58.0447 14.2727 57.6754 14.3892 57.3857 14.6222C57.0959 14.8551 56.8814 15.1605 56.7422 15.5384C56.603 15.9162 56.5334 16.3239 56.5334 16.7614C56.5334 17.1989 56.603 17.6051 56.7422 17.9801C56.8814 18.3551 57.0959 18.6577 57.3857 18.8878C57.6754 19.1179 58.0447 19.233 58.4936 19.233ZM64.0004 16.0625V20H62.9947V13.4545H63.9663V14.4773H64.0515C64.2049 14.1449 64.4379 13.8778 64.7504 13.6761C65.0629 13.4716 65.4663 13.3693 65.9606 13.3693C66.4038 13.3693 66.7915 13.4602 67.1239 13.642C67.4563 13.821 67.7148 14.0938 67.8995 14.4602C68.0842 14.8239 68.1765 15.2841 68.1765 15.8409V20H67.1708V15.9091C67.1708 15.3949 67.0373 14.9943 66.7702 14.7074C66.5032 14.4176 66.1367 14.2727 65.6708 14.2727C65.3498 14.2727 65.0629 14.3423 64.81 14.4815C64.56 14.6207 64.3626 14.8239 64.2177 15.0909C64.0728 15.358 64.0004 15.6818 64.0004 16.0625Z" fill="#FB923C"/>
</svg>
